<?xml version="1.0" standalone="no"?><!DOCTYPE svg PUBLIC "-//W3C//DTD SVG 1.1//EN" "http://www.w3.org/Graphics/SVG/1.1/DTD/svg11.dtd"><svg t="1705508304517" class="icon" viewBox="0 0 1024 1024" version="1.1" xmlns="http://www.w3.org/2000/svg" p-id="3181" xmlns:xlink="http://www.w3.org/1999/xlink" width="200" height="200"><path d="M512 106.667A405.333 405.333 0 1 1 106.667 512 405.333 405.333 0 0 1 512 106.667m0-64A469.333 469.333 0 1 0 981.333 512 469.333 469.333 0 0 0 512 42.667z" p-id="3182"></path><path d="M512 106.667A405.333 405.333 0 1 1 106.667 512 405.333 405.333 0 0 1 512 106.667m0-64A469.333 469.333 0 1 0 981.333 512 469.333 469.333 0 0 0 512 42.667z" p-id="3183"></path></svg>