<?xml version="1.0" standalone="no"?><!DOCTYPE svg PUBLIC "-//W3C//DTD SVG 1.1//EN" "http://www.w3.org/Graphics/SVG/1.1/DTD/svg11.dtd"><svg t="1705496445431" class="icon" viewBox="0 0 1024 1024" version="1.1" xmlns="http://www.w3.org/2000/svg" p-id="15608" xmlns:xlink="http://www.w3.org/1999/xlink"><path d="M404.2 134.5h212.6v51.1H404.2zM300.4 503.6h421.8v52.7H300.4zM300.4 345.4h421.8V398.1H300.4z" p-id="15609"></path><path d="M775 134.5H667.9v51.1h52.7c58.2 0 105.5 47.2 105.5 105.5v476.2c0 58.2-47.2 105.5-105.5 105.5H300.4c-58.2 0-105.4-47.2-105.4-105.5V291c0-58.2 47.2-105.5 105.4-105.5h52.7V134.4H247.7c-58.2 0-105.5 47.2-105.5 105.5v580c0 58.2 47.2 105.5 105.5 105.5H775c58.2 0 105.5-47.2 105.5-105.5v-580c-0.1-58.2-47.3-105.4-105.5-105.4z" p-id="15610"></path><path d="M300.4 661.7h421.8v52.7H300.4z" p-id="15611"></path></svg>