<?xml version="1.0" standalone="no"?><!DOCTYPE svg PUBLIC "-//W3C//DTD SVG 1.1//EN" "http://www.w3.org/Graphics/SVG/1.1/DTD/svg11.dtd"><svg t="1704978405132" class="icon" viewBox="0 0 1030 1024" version="1.1" xmlns="http://www.w3.org/2000/svg" p-id="1440" xmlns:xlink="http://www.w3.org/1999/xlink" width="201.171875" height="200"><path d="M512 0C228.968944 0 0 228.968944 0 512 0 795.031056 228.968944 1024 512 1024 795.031056 1024 1024 795.031056 1024 512 1022.409938 228.968944 793.440994 0 512 0z m30.21118 812.521739h-90.63354v-90.63354h90.63354v90.63354z m106.534162-357.763975c-9.540373 17.490683-28.621118 38.161491-55.652174 65.192547-28.621118 27.031056-46.111801 47.701863-50.881988 58.832298-4.770186 11.130435-7.950311 30.21118-7.95031 60.42236l7.95031 23.850932h-90.63354l-1.590062-25.440994c1.590062-30.21118 6.360248-57.242236 14.310559-77.913044 9.540373-22.26087 28.621118-47.701863 57.242236-77.913043 27.031056-27.031056 42.931677-47.701863 49.291925-57.242236 4.770186-9.540373 7.950311-20.670807 7.950311-36.571429 0-22.26087-6.360248-39.751553-20.670808-52.472049-14.310559-12.720497-33.391304-20.670807-58.832298-20.670808-54.062112 0-73.142857 38.161491-77.913043 106.534162h-90.633541v-9.540373c1.590062-31.801242 4.770186-55.652174 12.720497-74.732919 7.950311-19.080745 19.080745-36.571429 36.571429-52.47205 17.490683-15.900621 36.571429-27.031056 57.242236-33.391304 20.670807-6.360248 41.341615-11.130435 63.602484-11.130435 46.111801 0 85.863354 14.310559 116.074534 41.341615 30.21118 27.031056 46.111801 65.192547 46.111802 111.304348 0 23.850932-4.770186 44.521739-14.310559 62.012422z" p-id="1441"></path></svg>